<?xml version="1.0" encoding="UTF-8" standalone="no"?>
<!DOCTYPE svg PUBLIC "-//W3C//DTD SVG 1.1//EN" "http://www.w3.org/Graphics/SVG/1.1/DTD/svg11.dtd">
<svg xmlns="http://www.w3.org/2000/svg" version="1.1" viewBox="0.00 0.00 750.00 750.00">
<path stroke="#104d97" stroke-width="2.00" fill="none" stroke-linecap="butt" vector-effect="non-scaling-stroke" d="
  M 357.69 502.10
  Q 380.89 501.89 403.91 501.69
  Q 411.35 501.63 419.09 501.85
  Q 426.55 502.07 434.25 502.27"
/>
<path fill="#0f4a83" d="
  M 526.31 248.29
  L 358.30 248.30
  A 0.30 0.30 0.0 0 1 358.05 247.83
  L 413.76 163.98
  A 0.30 0.30 0.0 0 1 414.01 163.85
  L 582.02 163.85
  A 0.30 0.30 0.0 0 1 582.27 164.32
  L 526.56 248.16
  A 0.30 0.30 0.0 0 1 526.31 248.29
  Z"
/>
<path fill="#1150aa" d="
  M 357.69 502.10
  Q 380.89 501.89 403.91 501.69
  Q 411.35 501.63 419.09 501.85
  Q 426.55 502.07 434.25 502.27
  L 378.72 585.99
  A 1.15 1.14 -73.1 0 1 377.77 586.50
  L 210.27 586.50
  A 0.34 0.34 0.0 0 1 209.99 585.97
  L 237.60 544.38
  A 0.39 0.39 0.0 0 0 237.27 543.78
  L 210.07 543.80
  Q 209.72 543.80 209.72 543.45
  L 209.72 380.94
  Q 209.72 380.23 209.12 379.83
  L 167.89 352.59
  A 1.73 1.72 -73.4 0 1 167.12 351.15
  L 167.15 164.73
  Q 167.15 163.90 167.84 164.36
  L 250.92 219.43
  A 1.35 1.33 16.9 0 1 251.53 220.55
  L 251.52 318.53
  A 0.76 0.75 0.0 0 0 252.28 319.28
  L 285.76 319.28
  Q 286.50 319.28 286.50 320.01
  L 286.50 501.47
  Q 286.50 501.96 286.99 501.96
  L 357.69 502.10
  Z"
/>
<path fill="#0f4a83" d="
  M 434.25 502.27
  Q 426.55 502.07 419.09 501.85
  Q 411.35 501.63 403.91 501.69
  Q 380.89 501.89 357.69 502.10
  L 357.71 278.06
  Q 357.71 277.74 358.03 277.74
  L 581.97 277.75
  A 0.29 0.29 0.0 0 1 582.22 278.20
  L 526.71 361.71
  A 1.15 1.14 -73.1 0 1 525.76 362.22
  L 435.28 362.21
  Q 434.74 362.21 434.74 362.75
  Q 434.72 428.33 434.75 500.52
  Q 434.75 500.99 434.66 501.44
  Q 434.36 502.97 434.25 502.27
  Z"
/>
<path fill="#0f4a83" d="
  M 400.30 620.84
  L 400.30 633.05
  Q 400.30 633.68 400.93 633.67
  L 403.57 633.65
  Q 404.25 633.64 404.26 634.32
  L 404.27 634.81
  Q 404.28 635.39 403.69 635.39
  L 394.32 635.39
  Q 393.75 635.39 393.78 634.82
  L 393.81 634.33
  A 0.66 0.66 0.0 0 1 394.42 633.72
  L 396.43 633.61
  A 0.53 0.53 0.0 0 0 396.93 633.08
  L 396.91 620.96
  Q 396.91 620.26 396.21 620.24
  L 394.46 620.19
  A 0.71 0.70 -0.4 0 1 393.77 619.52
  L 393.75 619.25
  Q 393.72 618.52 394.45 618.50
  L 396.50 618.44
  Q 397.10 618.43 397.06 617.83
  C 396.86 615.16 397.69 611.47 400.67 610.71
  C 403.08 610.10 408.16 610.34 408.30 613.86
  Q 408.36 615.34 407.06 616.18
  A 1.98 1.97 -43.9 0 1 404.87 616.14
  Q 402.61 614.56 404.99 612.55
  Q 405.67 611.96 404.79 611.80
  C 400.23 610.97 400.08 614.59 400.23 617.81
  Q 400.26 618.47 400.92 618.47
  L 405.00 618.48
  Q 405.53 618.48 405.45 619.00
  L 405.37 619.62
  Q 405.29 620.18 404.72 620.19
  L 400.91 620.23
  Q 400.30 620.24 400.30 620.84
  Z"
/>
<path fill="#0f4a83" d="
  M 281.36 632.65
  Q 279.27 635.52 275.33 635.75
  C 260.88 636.61 258.84 615.12 271.79 611.62
  C 276.78 610.28 283.67 611.84 284.42 617.73
  Q 284.73 620.16 282.26 620.77
  A 2.46 2.46 0.0 0 1 279.44 619.41
  Q 278.53 617.45 280.56 615.86
  Q 281.24 615.32 280.50 614.87
  C 270.55 608.86 264.27 621.02 268.77 628.97
  C 270.72 632.42 274.93 634.19 278.55 632.09
  Q 281.47 630.40 281.27 626.86
  A 0.72 0.72 0.0 0 0 280.55 626.18
  L 277.24 626.21
  A 0.48 0.48 0.0 0 1 276.75 625.74
  L 276.73 624.26
  A 0.51 0.51 0.0 0 1 277.24 623.74
  L 286.50 623.75
  Q 287.00 623.75 286.99 624.25
  L 286.96 625.58
  A 0.55 0.55 0.0 0 1 286.42 626.12
  L 285.02 626.16
  Q 284.46 626.17 284.46 626.73
  L 284.47 634.75
  A 0.68 0.67 -88.0 0 1 283.75 635.43
  L 283.22 635.39
  A 0.97 0.96 -4.1 0 1 282.36 634.65
  L 281.93 632.76
  Q 281.77 632.07 281.36 632.65
  Z"
/>
<path fill="#0f4a83" d="
  M 230.40 622.12
  Q 229.31 622.55 230.41 622.95
  Q 234.46 624.41 234.80 628.17
  C 235.31 633.68 230.73 635.31 226.26 635.36
  Q 220.29 635.43 214.13 635.39
  Q 213.73 635.39 213.74 634.99
  L 213.76 633.44
  Q 213.77 633.15 214.06 633.16
  L 216.84 633.18
  A 0.78 0.77 0.4 0 0 217.63 632.41
  L 217.60 614.46
  Q 217.60 613.82 216.96 613.82
  L 214.10 613.86
  A 0.38 0.38 0.0 0 1 213.72 613.48
  L 213.75 612.03
  Q 213.75 611.68 214.11 611.67
  Q 221.30 611.44 227.02 611.85
  C 229.77 612.04 233.13 613.50 233.55 616.64
  Q 234.09 620.68 230.40 622.12
  Z
  M 221.32 614.35
  L 221.30 621.25
  A 0.49 0.49 0.0 0 0 221.79 621.75
  L 225.24 621.76
  A 4.98 3.63 0.2 0 0 230.23 618.15
  L 230.23 617.53
  A 4.98 3.63 0.2 0 0 225.26 613.88
  L 221.81 613.87
  A 0.49 0.49 0.0 0 0 221.32 614.35
  Z
  M 221.30 624.42
  L 221.32 632.76
  A 0.47 0.47 0.0 0 0 221.79 633.23
  L 225.42 633.22
  A 5.80 4.25 -0.1 0 0 231.21 628.96
  L 231.21 628.18
  A 5.80 4.25 -0.1 0 0 225.40 623.94
  L 221.77 623.95
  A 0.47 0.47 0.0 0 0 221.30 624.42
  Z"
/>
<path fill="#0f4a83" d="
  M 338.06 619.35
  Q 337.69 616.68 338.04 614.20
  Q 338.13 613.54 337.47 613.54
  L 334.75 613.52
  A 0.51 0.51 0.0 0 1 334.24 613.00
  L 334.25 612.18
  Q 334.25 611.61 334.82 611.62
  L 340.72 611.63
  Q 341.31 611.63 341.31 612.22
  L 341.32 632.96
  Q 341.32 633.59 341.96 633.63
  L 344.02 633.76
  A 0.27 0.26 -88.9 0 1 344.26 634.02
  L 344.28 635.03
  Q 344.29 635.35 343.97 635.35
  L 339.30 635.44
  Q 338.62 635.45 338.48 634.80
  L 338.24 633.75
  Q 338.07 633.01 337.47 633.46
  Q 336.87 633.91 336.45 634.52
  A 2.09 2.06 -80.8 0 1 335.36 635.32
  Q 329.66 637.04 327.14 631.90
  C 325.41 628.34 325.65 621.55 329.63 619.06
  Q 333.58 616.60 337.34 619.75
  Q 338.22 620.48 338.06 619.35
  Z
  M 333.8135 633.8795
  A 7.08 4.27 90.7 0 0 338.1697 626.8522
  A 7.08 4.27 90.7 0 0 333.9865 619.7205
  A 7.08 4.27 90.7 0 0 329.6303 626.7478
  A 7.08 4.27 90.7 0 0 333.8135 633.8795
  Z"
/>
<path fill="#0f4a83" d="
  M 368.88 622.86
  Q 374.63 624.98 373.37 630.66
  C 372.55 634.33 368.17 635.33 364.97 635.37
  Q 359.03 635.45 352.99 635.36
  A 0.57 0.56 2.0 0 1 352.43 634.77
  L 352.48 633.76
  Q 352.52 633.05 353.23 633.09
  L 355.53 633.23
  Q 356.35 633.28 356.35 632.47
  L 356.33 614.45
  A 0.63 0.62 89.6 0 0 355.70 613.82
  L 353.01 613.85
  A 0.57 0.57 0.0 0 1 352.43 613.26
  L 352.49 612.00
  A 0.42 0.41 0.7 0 1 352.91 611.60
  Q 357.97 611.63 363.19 611.64
  C 366.23 611.64 371.06 612.42 372.03 615.78
  Q 373.37 620.42 368.87 622.25
  Q 368.10 622.57 368.88 622.86
  Z
  M 360.00 614.36
  L 360.04 621.34
  A 0.44 0.44 0.0 0 0 360.48 621.78
  L 364.11 621.76
  A 4.79 3.46 -0.3 0 0 368.88 618.28
  L 368.88 617.34
  A 4.79 3.46 -0.3 0 0 364.07 613.90
  L 360.44 613.92
  A 0.44 0.44 0.0 0 0 360.00 614.36
  Z
  M 360.02 624.31
  L 360.04 632.91
  A 0.31 0.31 0.0 0 0 360.35 633.22
  L 364.23 633.21
  A 5.69 4.17 -0.1 0 0 369.91 629.03
  L 369.91 628.15
  A 5.69 4.17 -0.1 0 0 364.21 623.99
  L 360.33 624.00
  A 0.31 0.31 0.0 0 0 360.02 624.31
  Z"
/>
<path fill="#0f4a83" d="
  M 482.33 622.12
  Q 481.32 622.56 482.34 622.95
  Q 486.21 624.45 486.69 627.85
  C 487.49 633.45 482.74 635.31 478.13 635.36
  Q 471.94 635.43 466.12 635.40
  Q 465.70 635.40 465.66 634.98
  Q 465.59 634.23 465.77 633.49
  Q 465.86 633.13 466.23 633.14
  L 468.78 633.18
  Q 469.51 633.20 469.51 632.47
  L 469.51 614.43
  Q 469.51 613.84 468.93 613.84
  L 466.04 613.82
  A 0.49 0.49 0.0 0 1 465.56 613.28
  L 465.68 612.17
  Q 465.74 611.62 466.29 611.62
  Q 471.26 611.61 476.42 611.65
  C 479.69 611.67 484.45 612.42 485.34 616.16
  Q 486.34 620.41 482.33 622.12
  Z
  M 473.23 614.26
  L 473.19 621.32
  A 0.39 0.39 0.0 0 0 473.57 621.71
  L 477.24 621.74
  A 4.84 3.46 0.4 0 0 482.11 618.31
  L 482.11 617.39
  A 4.84 3.46 0.4 0 0 477.30 613.90
  L 473.63 613.87
  A 0.39 0.39 0.0 0 0 473.23 614.26
  Z
  M 473.21 624.43
  L 473.23 632.75
  A 0.46 0.46 0.0 0 0 473.69 633.21
  L 477.46 633.20
  A 5.63 3.97 -0.1 0 0 483.08 629.22
  L 483.08 627.92
  A 5.63 3.97 -0.1 0 0 477.44 623.96
  L 473.67 623.97
  A 0.46 0.46 0.0 0 0 473.21 624.43
  Z"
/>
<path fill="#0f4a83" d="
  M 524.96 620.22
  L 522.95 620.22
  Q 522.25 620.22 522.46 619.56
  Q 522.56 619.25 522.87 619.11
  C 525.75 617.82 526.69 614.99 527.84 612.28
  Q 527.98 611.96 528.32 611.88
  Q 528.62 611.82 528.85 612.08
  A 0.41 0.40 24.6 0 1 528.97 612.39
  L 528.81 617.88
  Q 528.79 618.46 529.38 618.46
  L 534.75 618.49
  Q 535.25 618.50 535.24 619.00
  L 535.23 619.74
  Q 535.22 620.20 534.76 620.21
  L 529.44 620.26
  Q 528.79 620.26 528.80 620.91
  Q 528.90 625.76 528.86 630.71
  C 528.85 632.28 529.60 633.87 531.51 633.61
  Q 533.23 633.37 533.56 631.67
  Q 533.89 629.96 533.72 628.15
  Q 533.66 627.55 534.27 627.59
  L 535.07 627.66
  Q 535.69 627.71 535.65 628.33
  C 535.52 630.14 535.77 632.08 534.82 633.69
  Q 533.40 636.08 530.29 635.79
  Q 525.56 635.33 525.51 630.60
  Q 525.46 625.79 525.51 620.79
  A 0.56 0.55 -89.5 0 0 524.96 620.22
  Z"
/>
<path fill="#0f4a83" d="
  M 242.75 626.70
  Q 240.01 626.70 241.12 629.20
  Q 241.39 629.80 241.88 630.88
  Q 243.14 633.71 246.22 633.42
  Q 249.39 633.13 250.67 630.16
  A 0.72 0.72 0.0 0 1 251.46 629.73
  L 252.15 629.86
  A 0.55 0.54 -76.5 0 1 252.57 630.55
  Q 251.30 634.92 246.93 635.66
  C 239.08 636.98 235.33 628.59 238.41 622.38
  C 240.08 619.02 243.63 617.30 247.28 618.26
  Q 252.48 619.63 253.06 626.04
  A 0.61 0.61 0.0 0 1 252.45 626.70
  L 242.75 626.70
  Z
  M 241.50 625.01
  L 249.26 624.99
  A 0.31 0.31 0.0 0 0 249.57 624.68
  L 249.57 624.46
  A 4.53 4.13 89.8 0 0 245.42 619.94
  L 245.30 619.94
  A 4.53 4.13 89.8 0 0 241.19 624.48
  L 241.19 624.70
  A 0.31 0.31 0.0 0 0 241.50 625.01
  Z"
/>
<path fill="#0f4a83" d="
  M 296.6958 635.9291
  A 9.01 8.30 89.2 0 1 288.2708 627.0359
  A 9.01 8.30 89.2 0 1 296.4442 617.9109
  A 9.01 8.30 89.2 0 1 304.8692 626.8041
  A 9.01 8.30 89.2 0 1 296.6958 635.9291
  Z
  M 296.5700 633.9600
  A 7.11 4.69 90.0 0 0 301.2600 626.8500
  A 7.11 4.69 90.0 0 0 296.5700 619.7400
  A 7.11 4.69 90.0 0 0 291.8800 626.8500
  A 7.11 4.69 90.0 0 0 296.5700 633.9600
  Z"
/>
<path fill="#0f4a83" d="
  M 315.5529 635.9298
  A 9.01 8.32 89.6 0 1 307.1702 626.9781
  A 9.01 8.32 89.6 0 1 315.4271 617.9102
  A 9.01 8.32 89.6 0 1 323.8098 626.8619
  A 9.01 8.32 89.6 0 1 315.5529 635.9298
  Z
  M 315.5148 633.9600
  A 7.11 4.69 89.8 0 0 320.1800 626.8336
  A 7.11 4.69 89.8 0 0 315.4652 619.7400
  A 7.11 4.69 89.8 0 0 310.8000 626.8664
  A 7.11 4.69 89.8 0 0 315.5148 633.9600
  Z"
/>
<path fill="#0f4a83" d="
  M 379.69 627.25
  C 379.47 633.33 386.05 636.17 389.39 630.27
  Q 389.73 629.67 390.41 629.74
  Q 390.75 629.77 391.03 629.92
  A 0.59 0.59 0.0 0 1 391.32 630.63
  Q 389.88 635.02 385.47 635.68
  C 373.45 637.49 372.85 617.79 384.28 618.04
  C 388.80 618.14 391.44 621.59 391.73 625.95
  A 0.70 0.69 88.1 0 1 391.03 626.70
  L 380.27 626.69
  Q 379.71 626.68 379.69 627.25
  Z
  M 380.24 625.02
  L 387.94 625.00
  A 0.32 0.32 0.0 0 0 388.26 624.68
  L 388.26 624.46
  A 4.52 4.10 89.8 0 0 384.14 619.95
  L 384.00 619.95
  A 4.52 4.10 89.8 0 0 379.92 624.48
  L 379.92 624.70
  A 0.32 0.32 0.0 0 0 380.24 625.02
  Z"
/>
<path fill="#0f4a83" d="
  M 414.8685 635.9197
  A 9.00 8.31 89.5 0 1 406.4803 626.9925
  A 9.00 8.31 89.5 0 1 414.7115 617.9203
  A 9.00 8.31 89.5 0 1 423.0997 626.8475
  A 9.00 8.31 89.5 0 1 414.8685 635.9197
  Z
  M 414.8124 633.9600
  A 7.11 4.70 89.9 0 0 419.5000 626.8418
  A 7.11 4.70 89.9 0 0 414.7876 619.7400
  A 7.11 4.70 89.9 0 0 410.1000 626.8582
  A 7.11 4.70 89.9 0 0 414.8124 633.9600
  Z"
/>
<path fill="#0f4a83" d="
  M 431.48 620.87
  Q 431.76 621.49 432.04 620.87
  Q 433.68 617.28 437.38 618.24
  C 439.01 618.66 439.48 620.49 438.91 621.91
  Q 438.47 623.03 437.28 623.22
  Q 435.78 623.46 434.86 622.30
  Q 434.62 622.00 434.62 621.61
  Q 434.63 621.25 434.67 620.89
  Q 434.82 619.24 433.59 620.36
  C 430.93 622.76 431.35 629.09 431.60 633.07
  Q 431.64 633.63 432.19 633.65
  L 434.57 633.72
  Q 435.16 633.74 435.20 634.32
  L 435.23 634.68
  A 0.66 0.66 0.0 0 1 434.57 635.39
  L 425.54 635.41
  A 0.52 0.52 0.0 0 1 425.03 634.78
  L 425.15 634.19
  Q 425.26 633.67 425.79 633.66
  L 427.67 633.62
  Q 428.20 633.61 428.20 633.08
  L 428.21 620.85
  Q 428.21 620.24 427.60 620.23
  L 425.50 620.22
  Q 425.03 620.22 425.05 619.75
  L 425.09 618.91
  Q 425.12 618.45 425.59 618.43
  L 430.49 618.22
  Q 431.31 618.19 431.22 619.01
  Q 431.10 620.01 431.48 620.87
  Z"
/>
<path fill="#0f4a83" d="
  M 445.76 626.70
  Q 443.49 626.69 444.30 628.81
  Q 444.41 629.09 445.05 630.76
  A 4.11 4.09 -5.5 0 0 448.18 633.33
  Q 452.13 634.01 454.01 630.08
  Q 454.24 629.60 454.75 629.76
  L 455.51 630.00
  Q 456.10 630.19 455.89 630.78
  C 454.36 635.07 450.12 636.74 445.99 635.33
  C 440.57 633.47 439.47 626.80 441.83 622.15
  C 443.65 618.58 447.88 617.07 451.54 618.57
  Q 455.90 620.36 456.31 626.05
  Q 456.36 626.72 455.69 626.72
  L 445.76 626.70
  Z
  M 444.80 625.03
  L 452.58 624.97
  A 0.29 0.29 0.0 0 0 452.87 624.68
  L 452.86 624.20
  A 4.27 4.18 89.6 0 0 448.65 619.96
  L 448.65 619.96
  A 4.27 4.18 89.6 0 0 444.50 624.26
  L 444.51 624.74
  A 0.29 0.29 0.0 0 0 444.80 625.03
  Z"
/>
<path fill="#0f4a83" d="
  M 494.69 626.70
  Q 491.88 626.70 493.05 629.25
  Q 493.64 630.55 493.86 631.02
  A 4.19 4.18 73.1 0 0 498.35 633.42
  Q 501.44 632.92 502.59 630.15
  Q 502.77 629.69 503.27 629.74
  L 504.00 629.81
  Q 504.64 629.87 504.48 630.50
  C 503.25 635.26 498.16 636.93 493.98 635.08
  C 489.62 633.14 488.38 627.75 489.83 623.52
  C 491.37 619.01 496.15 616.67 500.54 618.77
  Q 504.53 620.66 504.93 625.96
  Q 504.99 626.71 504.25 626.71
  L 494.69 626.70
  Z
  M 493.33 625.01
  L 501.27 624.99
  A 0.23 0.23 0.0 0 0 501.50 624.76
  L 501.50 624.58
  A 4.65 4.12 89.8 0 0 497.36 619.94
  L 497.20 619.94
  A 4.65 4.12 89.8 0 0 493.10 624.60
  L 493.10 624.78
  A 0.23 0.23 0.0 0 0 493.33 625.01
  Z"
/>
<path fill="#0f4a83" d="
  M 511.03 633.41
  Q 514.03 634.65 517.03 633.44
  A 2.27 2.27 0.0 0 0 518.30 630.53
  Q 517.81 629.21 516.25 628.70
  Q 513.20 627.71 510.55 626.73
  C 506.31 625.16 506.98 620.09 510.95 618.64
  Q 515.27 617.07 519.41 619.36
  C 520.78 620.12 521.41 621.90 520.58 623.27
  A 1.96 1.95 -53.5 0 1 517.60 623.72
  Q 515.98 622.28 517.56 620.88
  A 0.46 0.45 33.4 0 0 517.40 620.11
  C 515.54 619.50 511.60 619.23 510.73 621.56
  A 2.04 2.04 0.0 0 0 512.06 624.22
  C 514.82 625.03 520.47 626.32 521.23 629.47
  C 523.09 637.14 509.70 637.71 507.63 632.42
  A 2.33 2.32 -11.4 0 1 509.74 629.25
  C 511.72 629.21 512.53 631.53 510.95 632.66
  Q 510.31 633.11 511.03 633.41
  Z"
/>
</svg>
